<svg xmlns="http://www.w3.org/2000/svg"  viewBox="0 0 64 64" width="512px" height="512px"><linearGradient id="psYn0CQ76SObQ2C8Ldihxa" x1="26.5" x2="26.5" y1="38.064" y2="42.491" gradientUnits="userSpaceOnUse"><stop offset="0" stop-color="#6dc7ff"/><stop offset="1" stop-color="#e6abff"/></linearGradient><path fill="url(#psYn0CQ76SObQ2C8Ldihxa)" d="M26.5,43L26.5,43c-1.933,0-3.5-1.567-3.5-3.5v0c0-0.828,0.672-1.5,1.5-1.5H30v1.5 C30,41.433,28.433,43,26.5,43z"/><g><linearGradient id="psYn0CQ76SObQ2C8Ldihxb" x1="32" x2="32" y1="4.064" y2="57.313" gradientUnits="userSpaceOnUse"><stop offset="0" stop-color="#1a6dff"/><stop offset="1" stop-color="#c822ff"/></linearGradient><path fill="url(#psYn0CQ76SObQ2C8Ldihxb)" d="M32,6C17.663,6,6,17.663,6,32s11.663,26,26,26s26-11.663,26-26S46.337,6,32,6z M32,56 C18.767,56,8,45.233,8,32S18.767,8,32,8s24,10.767,24,24S45.233,56,32,56z"/><linearGradient id="psYn0CQ76SObQ2C8Ldihxc" x1="32" x2="32" y1="4.064" y2="57.313" gradientUnits="userSpaceOnUse"><stop offset="0" stop-color="#1a6dff"/><stop offset="1" stop-color="#c822ff"/></linearGradient><path fill="url(#psYn0CQ76SObQ2C8Ldihxc)" d="M34,22c0-1.654,1.346-3,3-3h4c1.103,0,2,0.897,2,2s-0.897,2-2,2h-4.667v2H41 c2.206,0,4-1.794,4-4s-1.794-4-4-4h-4c-2.757,0-5,2.243-5,5v12h-7c-3.309,0-6,2.691-6,6c0,3.859,3.141,7,7,7h1c3.859,0,7-3.141,7-7 V22z M32,40c0,2.757-2.243,5-5,5h-1c-2.757,0-5-2.243-5-5c0-2.206,1.794-4,4-4h7V40z"/><linearGradient id="psYn0CQ76SObQ2C8Ldihxd" x1="21" x2="21" y1="4.064" y2="57.313" gradientUnits="userSpaceOnUse"><stop offset="0" stop-color="#1a6dff"/><stop offset="1" stop-color="#c822ff"/></linearGradient><path fill="url(#psYn0CQ76SObQ2C8Ldihxd)" d="M32,12v-2c-12.131,0-22,9.869-22,22h2C12,20.972,20.972,12,32,12z"/><linearGradient id="psYn0CQ76SObQ2C8Ldihxe" x1="43" x2="43" y1="4.064" y2="57.313" gradientUnits="userSpaceOnUse"><stop offset="0" stop-color="#1a6dff"/><stop offset="1" stop-color="#c822ff"/></linearGradient><path fill="url(#psYn0CQ76SObQ2C8Ldihxe)" d="M52,32c0,11.028-8.972,20-20,20v2c12.131,0,22-9.869,22-22H52z"/><linearGradient id="psYn0CQ76SObQ2C8Ldihxf" x1="23" x2="23" y1="4.064" y2="57.313" gradientUnits="userSpaceOnUse"><stop offset="0" stop-color="#1a6dff"/><stop offset="1" stop-color="#c822ff"/></linearGradient><path fill="url(#psYn0CQ76SObQ2C8Ldihxf)" d="M32,16v-2c-9.925,0-18,8.075-18,18h2C16,23.178,23.178,16,32,16z"/><linearGradient id="psYn0CQ76SObQ2C8Ldihxg" x1="41" x2="41" y1="4.064" y2="57.313" gradientUnits="userSpaceOnUse"><stop offset="0" stop-color="#1a6dff"/><stop offset="1" stop-color="#c822ff"/></linearGradient><path fill="url(#psYn0CQ76SObQ2C8Ldihxg)" d="M32,48v2c9.925,0,18-8.075,18-18h-2C48,40.822,40.822,48,32,48z"/></g></svg>